<mxfile host="app.diagrams.net" modified="2021-12-05T05:21:24.511Z" agent="5.0 (Macintosh)" etag="Y2XT8WMbMehVXftX2slP" version="15.9.1" type="github">
  <diagram name="Page-1" id="c7558073-3199-34d8-9f00-42111426c3f3">
    <mxGraphModel dx="2119" dy="1416" grid="1" gridSize="10" guides="1" tooltips="1" connect="1" arrows="1" fold="1" page="1" pageScale="1" pageWidth="826" pageHeight="1169" background="none" math="0" shadow="0">
      <root>
        <mxCell id="0" />
        <mxCell id="1" parent="0" />
        <mxCell id="9FcSuVPsfGgKmMSjfDe_-177" style="edgeStyle=orthogonalEdgeStyle;rounded=1;orthogonalLoop=1;jettySize=auto;html=1;exitX=-0.004;exitY=0.528;exitDx=0;exitDy=0;entryX=1;entryY=0.75;entryDx=0;entryDy=0;strokeColor=#990000;strokeWidth=2;exitPerimeter=0;" edge="1" parent="1" source="9FcSuVPsfGgKmMSjfDe_-172" target="9FcSuVPsfGgKmMSjfDe_-97">
          <mxGeometry relative="1" as="geometry" />
        </mxCell>
        <mxCell id="9FcSuVPsfGgKmMSjfDe_-172" value="" style="rounded=1;whiteSpace=wrap;html=1;fillColor=#cdeb8b;strokeColor=#36393d;" vertex="1" parent="1">
          <mxGeometry x="160" y="206" width="550" height="424" as="geometry" />
        </mxCell>
        <mxCell id="9FcSuVPsfGgKmMSjfDe_-123" value="" style="edgeStyle=orthogonalEdgeStyle;rounded=1;orthogonalLoop=1;jettySize=auto;html=1;strokeColor=#990000;strokeWidth=2;" edge="1" parent="1" source="9FcSuVPsfGgKmMSjfDe_-115" target="6">
          <mxGeometry relative="1" as="geometry" />
        </mxCell>
        <mxCell id="9FcSuVPsfGgKmMSjfDe_-129" value="" style="edgeStyle=orthogonalEdgeStyle;rounded=1;orthogonalLoop=1;jettySize=auto;html=1;strokeColor=#990000;strokeWidth=2;" edge="1" parent="1" source="9FcSuVPsfGgKmMSjfDe_-115" target="9FcSuVPsfGgKmMSjfDe_-128">
          <mxGeometry relative="1" as="geometry" />
        </mxCell>
        <mxCell id="9FcSuVPsfGgKmMSjfDe_-115" value="" style="whiteSpace=wrap;align=center;verticalAlign=middle;fontStyle=1;strokeWidth=3;fillColor=#e1d5e7;strokeColor=#9673a6;" vertex="1" parent="1">
          <mxGeometry x="386" y="80.01" width="100" height="59.99" as="geometry" />
        </mxCell>
        <mxCell id="9FcSuVPsfGgKmMSjfDe_-176" style="edgeStyle=orthogonalEdgeStyle;rounded=1;orthogonalLoop=1;jettySize=auto;html=1;exitX=1;exitY=0.25;exitDx=0;exitDy=0;entryX=-0.002;entryY=0.467;entryDx=0;entryDy=0;entryPerimeter=0;strokeColor=#990000;strokeWidth=2;" edge="1" parent="1" source="9FcSuVPsfGgKmMSjfDe_-97" target="9FcSuVPsfGgKmMSjfDe_-172">
          <mxGeometry relative="1" as="geometry" />
        </mxCell>
        <mxCell id="9FcSuVPsfGgKmMSjfDe_-97" value="&#xa;Web/Mobile&#xa;&#xa;&#xa;&#xa;&#xa;&#xa;&#xa;" style="whiteSpace=wrap;align=center;verticalAlign=middle;fontStyle=1;strokeWidth=3;fillColor=#FFFFCC" vertex="1" parent="1">
          <mxGeometry x="10" y="357" width="110" height="118" as="geometry" />
        </mxCell>
        <mxCell id="2" value="&lt;p style=&quot;margin: 0px ; margin-top: 4px ; text-align: center ; text-decoration: underline&quot;&gt;&lt;strong&gt;AuthService&lt;br&gt;&lt;/strong&gt;&lt;/p&gt;&lt;hr&gt;&lt;div&gt;Authentication&lt;/div&gt;&lt;div&gt;Service&lt;br&gt;&lt;/div&gt;" style="verticalAlign=middle;align=center;overflow=fill;fontSize=12;fontFamily=Helvetica;html=1;rounded=1;fontStyle=1;strokeWidth=3;fillColor=#E6FFCC" parent="1" vertex="1">
          <mxGeometry x="246" y="246" width="110" height="90" as="geometry" />
        </mxCell>
        <mxCell id="3" value="3rd-Party Auth Package" style="whiteSpace=wrap;align=center;verticalAlign=middle;fontStyle=1;strokeWidth=3;fillColor=#e1d5e7;strokeColor=#9673a6;" parent="1" vertex="1">
          <mxGeometry x="256" y="136" width="90" height="60" as="geometry" />
        </mxCell>
        <mxCell id="5" value="Message Queue Broker" style="shape=process;whiteSpace=wrap;align=center;verticalAlign=middle;size=0.0475;fontStyle=1;strokeWidth=3;fillColor=#FFCCCC" parent="1" vertex="1">
          <mxGeometry x="210.99999999999991" y="401" width="400" height="50" as="geometry" />
        </mxCell>
        <mxCell id="6" value="&lt;p style=&quot;margin: 0px ; margin-top: 4px ; text-align: center ; text-decoration: underline&quot;&gt;&lt;strong&gt;UserDataService&lt;br&gt;&lt;/strong&gt;&lt;/p&gt;&lt;hr&gt;&lt;p style=&quot;margin: 0px ; margin-left: 8px&quot;&gt;Database &lt;br&gt;&lt;/p&gt;&lt;div&gt;CRUD&lt;/div&gt;&lt;div&gt;Operations&lt;br&gt;&lt;/div&gt;" style="verticalAlign=middle;align=center;overflow=fill;fontSize=12;fontFamily=Helvetica;html=1;rounded=1;fontStyle=1;strokeWidth=3;fillColor=#E6FFCC" parent="1" vertex="1">
          <mxGeometry x="381" y="246" width="110" height="90" as="geometry" />
        </mxCell>
        <mxCell id="9FcSuVPsfGgKmMSjfDe_-108" style="edgeStyle=orthogonalEdgeStyle;rounded=1;orthogonalLoop=1;jettySize=auto;html=1;exitX=1;exitY=0.422;exitDx=0;exitDy=0;entryX=-0.022;entryY=0.383;entryDx=0;entryDy=0;strokeColor=#990000;strokeWidth=2;entryPerimeter=0;exitPerimeter=0;" edge="1" parent="1" source="8" target="9FcSuVPsfGgKmMSjfDe_-107">
          <mxGeometry relative="1" as="geometry" />
        </mxCell>
        <mxCell id="9FcSuVPsfGgKmMSjfDe_-130" value="" style="edgeStyle=orthogonalEdgeStyle;rounded=1;orthogonalLoop=1;jettySize=auto;html=1;strokeColor=#990000;strokeWidth=2;" edge="1" parent="1" source="8" target="9FcSuVPsfGgKmMSjfDe_-128">
          <mxGeometry relative="1" as="geometry">
            <Array as="points">
              <mxPoint x="625" y="210" />
              <mxPoint x="625" y="210" />
            </Array>
          </mxGeometry>
        </mxCell>
        <mxCell id="8" value="&lt;p style=&quot;margin: 0px ; margin-top: 4px ; text-align: center ; text-decoration: underline&quot;&gt;&lt;strong&gt;&lt;strong&gt;GeoService&lt;/strong&gt;&lt;br&gt;&lt;/strong&gt;&lt;/p&gt;&lt;hr&gt;&lt;p style=&quot;margin: 0px ; margin-left: 8px&quot;&gt;Detail Chosen&lt;/p&gt;&lt;p style=&quot;margin: 0px ; margin-left: 8px&quot;&gt;Solution&lt;/p&gt;" style="verticalAlign=middle;align=center;overflow=fill;fontSize=12;fontFamily=Helvetica;html=1;rounded=1;fontStyle=1;strokeWidth=3;fillColor=#E6FFCC" parent="1" vertex="1">
          <mxGeometry x="565" y="246" width="110" height="90" as="geometry" />
        </mxCell>
        <mxCell id="9FcSuVPsfGgKmMSjfDe_-165" style="edgeStyle=orthogonalEdgeStyle;rounded=1;orthogonalLoop=1;jettySize=auto;html=1;exitX=0.5;exitY=1;exitDx=0;exitDy=0;strokeColor=#990000;strokeWidth=2;" edge="1" parent="1" source="9" target="9FcSuVPsfGgKmMSjfDe_-164">
          <mxGeometry relative="1" as="geometry" />
        </mxCell>
        <mxCell id="9" value="&lt;p style=&quot;margin: 0px ; margin-top: 4px ; text-align: center ; text-decoration: underline&quot;&gt;&lt;strong&gt;DataAnalService&lt;br&gt;&lt;/strong&gt;&lt;/p&gt;&lt;hr&gt;&lt;div&gt;Activate AWS&lt;/div&gt;&lt;div&gt;ML&lt;/div&gt;&lt;div&gt;Service&lt;br&gt;&lt;/div&gt;" style="verticalAlign=middle;align=center;overflow=fill;fontSize=12;fontFamily=Helvetica;html=1;rounded=1;fontStyle=1;strokeWidth=3;fillColor=#E6FFCC" parent="1" vertex="1">
          <mxGeometry x="525" y="520" width="110" height="90" as="geometry" />
        </mxCell>
        <mxCell id="9FcSuVPsfGgKmMSjfDe_-142" style="edgeStyle=orthogonalEdgeStyle;rounded=1;orthogonalLoop=1;jettySize=auto;html=1;exitX=0.335;exitY=0.017;exitDx=0;exitDy=0;entryX=0.25;entryY=1;entryDx=0;entryDy=0;strokeColor=#990000;strokeWidth=2;exitPerimeter=0;" edge="1" parent="1" source="9FcSuVPsfGgKmMSjfDe_-135" target="10">
          <mxGeometry relative="1" as="geometry" />
        </mxCell>
        <mxCell id="10" value="&lt;p style=&quot;margin: 0px ; margin-top: 4px ; text-align: center ; text-decoration: underline&quot;&gt;&lt;strong&gt;ForumDataService&lt;br&gt;&lt;/strong&gt;&lt;/p&gt;&lt;hr&gt;&lt;div&gt;Forum&lt;/div&gt;&lt;div&gt;CRUD&lt;/div&gt;&lt;div&gt;Operations&lt;br&gt;&lt;/div&gt;" style="verticalAlign=middle;align=center;overflow=fill;fontSize=12;fontFamily=Helvetica;html=1;rounded=1;fontStyle=1;strokeWidth=3;fillColor=#E6FFCC" parent="1" vertex="1">
          <mxGeometry x="198.49999999999991" y="520" width="110" height="90" as="geometry" />
        </mxCell>
        <mxCell id="36" value="" style="edgeStyle=none;noEdgeStyle=1;strokeColor=#990000;strokeWidth=2" parent="1" source="2" target="3" edge="1">
          <mxGeometry width="100" height="100" relative="1" as="geometry">
            <mxPoint x="130" y="160" as="sourcePoint" />
            <mxPoint x="30" y="260" as="targetPoint" />
          </mxGeometry>
        </mxCell>
        <mxCell id="9FcSuVPsfGgKmMSjfDe_-152" value="" style="edgeStyle=orthogonalEdgeStyle;rounded=1;orthogonalLoop=1;jettySize=auto;html=1;strokeColor=#990000;strokeWidth=2;" edge="1" parent="1" source="11" target="10">
          <mxGeometry relative="1" as="geometry" />
        </mxCell>
        <mxCell id="11" value="&lt;p style=&quot;margin: 0px ; margin-top: 4px ; text-align: center ; text-decoration: underline&quot;&gt;&lt;strong&gt;SocketService&lt;br&gt;&lt;/strong&gt;&lt;/p&gt;&lt;hr&gt;&lt;div&gt;Realtime&lt;/div&gt;&lt;div&gt;Data &amp;amp; &lt;br&gt;&lt;/div&gt;&lt;div&gt;Messaging&lt;br&gt;&lt;/div&gt;" style="verticalAlign=middle;align=center;overflow=fill;fontSize=12;fontFamily=Helvetica;html=1;rounded=1;fontStyle=1;strokeWidth=3;fillColor=#E6FFCC" parent="1" vertex="1">
          <mxGeometry x="357.49999999999994" y="520" width="110" height="90" as="geometry" />
        </mxCell>
        <mxCell id="53" value="Apple/Google &#xa;Auth" style="text;spacingTop=-5;align=center" parent="1" vertex="1">
          <mxGeometry x="241" y="206" width="30" height="20" as="geometry" />
        </mxCell>
        <mxCell id="54" value="response from&#xa;Message Queue&#xa;" style="text;spacingTop=-5;align=center" parent="1" vertex="1">
          <mxGeometry x="196" y="351" width="30" height="20" as="geometry" />
        </mxCell>
        <mxCell id="55" value="" style="edgeStyle=elbowEdgeStyle;elbow=horizontal;strokeColor=#990000;strokeWidth=2" parent="1" source="5" target="2" edge="1">
          <mxGeometry width="100" height="100" relative="1" as="geometry">
            <mxPoint x="60" y="540" as="sourcePoint" />
            <mxPoint x="160" y="440" as="targetPoint" />
            <Array as="points">
              <mxPoint x="270" y="380" />
            </Array>
          </mxGeometry>
        </mxCell>
        <mxCell id="56" value="" style="edgeStyle=elbowEdgeStyle;elbow=horizontal;strokeColor=#990000;strokeWidth=2" parent="1" source="2" target="5" edge="1">
          <mxGeometry width="100" height="100" relative="1" as="geometry">
            <mxPoint x="60" y="510" as="sourcePoint" />
            <mxPoint x="160" y="410" as="targetPoint" />
            <Array as="points">
              <mxPoint x="290" y="370" />
            </Array>
          </mxGeometry>
        </mxCell>
        <mxCell id="57" value="Authorized&#xa;Events" style="text;spacingTop=-5;align=center" parent="1" vertex="1">
          <mxGeometry x="316" y="351" width="30" height="20" as="geometry" />
        </mxCell>
        <mxCell id="58" value="" style="edgeStyle=elbowEdgeStyle;elbow=horizontal;strokeColor=#990000;strokeWidth=2" parent="1" source="5" target="6" edge="1">
          <mxGeometry width="100" height="100" relative="1" as="geometry">
            <mxPoint x="390" y="380" as="sourcePoint" />
            <mxPoint x="490" y="280" as="targetPoint" />
            <Array as="points">
              <mxPoint x="450" y="320" />
            </Array>
          </mxGeometry>
        </mxCell>
        <mxCell id="59" value="" style="edgeStyle=elbowEdgeStyle;elbow=horizontal;strokeColor=#990000;strokeWidth=2" parent="1" source="6" target="5" edge="1">
          <mxGeometry width="100" height="100" relative="1" as="geometry">
            <mxPoint x="360" y="380" as="sourcePoint" />
            <mxPoint x="460" y="280" as="targetPoint" />
            <Array as="points">
              <mxPoint x="470" y="330" />
            </Array>
          </mxGeometry>
        </mxCell>
        <mxCell id="62" value="User Data&#xa;Keyword&#xa;" style="text;spacingTop=-5;align=center" parent="1" vertex="1">
          <mxGeometry x="463.5000000000001" y="166.00000000000003" width="30" height="20" as="geometry" />
        </mxCell>
        <mxCell id="63" value="Geo Data" style="text;spacingTop=-5;align=center" parent="1" vertex="1">
          <mxGeometry x="570" y="220.0000000000001" width="30" height="20" as="geometry" />
        </mxCell>
        <mxCell id="68" value="" style="edgeStyle=elbowEdgeStyle;elbow=horizontal;strokeColor=#990000;strokeWidth=2" parent="1" source="8" target="5" edge="1">
          <mxGeometry width="100" height="100" relative="1" as="geometry">
            <mxPoint x="580" y="390" as="sourcePoint" />
            <mxPoint x="520" y="260" as="targetPoint" />
            <Array as="points">
              <mxPoint x="580" y="370" />
            </Array>
          </mxGeometry>
        </mxCell>
        <mxCell id="69" value="" style="edgeStyle=segmentEdgeStyle;strokeColor=#990000;strokeWidth=2" parent="1" source="5" target="8" edge="1">
          <mxGeometry width="100" height="100" relative="1" as="geometry">
            <mxPoint x="350" y="370" as="sourcePoint" />
            <mxPoint x="450" y="270" as="targetPoint" />
            <Array as="points">
              <mxPoint x="530" y="296" />
            </Array>
          </mxGeometry>
        </mxCell>
        <mxCell id="70" value="Service&#xa;Request&#xa;" style="text;spacingTop=-5;align=center" parent="1" vertex="1">
          <mxGeometry x="540.0000000000002" y="350.9999999999999" width="30" height="20" as="geometry" />
        </mxCell>
        <mxCell id="76" value="" style="edgeStyle=elbowEdgeStyle;elbow=horizontal;strokeColor=#990000;strokeWidth=2" parent="1" source="9" target="5" edge="1">
          <mxGeometry width="100" height="100" relative="1" as="geometry">
            <mxPoint x="430" y="590" as="sourcePoint" />
            <mxPoint x="530" y="490" as="targetPoint" />
            <Array as="points">
              <mxPoint x="580" y="480" />
            </Array>
          </mxGeometry>
        </mxCell>
        <mxCell id="77" value="" style="edgeStyle=elbowEdgeStyle;elbow=horizontal;strokeColor=#990000;strokeWidth=2" parent="1" source="5" target="9" edge="1">
          <mxGeometry width="100" height="100" relative="1" as="geometry">
            <mxPoint x="410" y="600" as="sourcePoint" />
            <mxPoint x="510" y="500" as="targetPoint" />
            <Array as="points">
              <mxPoint x="570" y="490" />
            </Array>
          </mxGeometry>
        </mxCell>
        <mxCell id="88" value="" style="edgeStyle=elbowEdgeStyle;elbow=horizontal;strokeColor=#990000;strokeWidth=2" parent="1" target="11" edge="1">
          <mxGeometry width="100" height="100" relative="1" as="geometry">
            <mxPoint x="404" y="451" as="sourcePoint" />
            <mxPoint x="164" y="410" as="targetPoint" />
            <Array as="points">
              <mxPoint x="404" y="480" />
            </Array>
          </mxGeometry>
        </mxCell>
        <mxCell id="89" value="" style="edgeStyle=elbowEdgeStyle;elbow=horizontal;strokeColor=#990000;strokeWidth=2" parent="1" source="11" edge="1">
          <mxGeometry width="100" height="100" relative="1" as="geometry">
            <mxPoint x="73.99999999999989" y="520" as="sourcePoint" />
            <mxPoint x="424" y="451" as="targetPoint" />
            <Array as="points">
              <mxPoint x="424" y="480" />
            </Array>
          </mxGeometry>
        </mxCell>
        <mxCell id="90" value="Forum Data" style="text;spacingTop=-5;align=center" parent="1" vertex="1">
          <mxGeometry x="190" y="480" width="30" height="20" as="geometry" />
        </mxCell>
        <mxCell id="91" value="Forum &#xa;Response" style="text;spacingTop=-5;align=center" parent="1" vertex="1">
          <mxGeometry x="181" y="630.0000000000002" width="30" height="20" as="geometry" />
        </mxCell>
        <mxCell id="92" value="" style="edgeStyle=elbowEdgeStyle;elbow=horizontal;strokeColor=#990000;strokeWidth=2" parent="1" source="5" target="10" edge="1">
          <mxGeometry width="100" height="100" relative="1" as="geometry">
            <mxPoint x="40.000000000000114" y="510" as="sourcePoint" />
            <mxPoint x="140.0000000000001" y="410" as="targetPoint" />
            <Array as="points">
              <mxPoint x="260" y="480" />
            </Array>
          </mxGeometry>
        </mxCell>
        <mxCell id="93" value="" style="edgeStyle=elbowEdgeStyle;elbow=horizontal;strokeColor=#990000;strokeWidth=2" parent="1" source="10" target="5" edge="1">
          <mxGeometry width="100" height="100" relative="1" as="geometry">
            <mxPoint x="50" y="520" as="sourcePoint" />
            <mxPoint x="150" y="420" as="targetPoint" />
            <Array as="points">
              <mxPoint x="240" y="480" />
            </Array>
          </mxGeometry>
        </mxCell>
        <mxCell id="95" value="Socket&#xa;Room&#xa;" style="text;spacingTop=-5;align=center" parent="1" vertex="1">
          <mxGeometry x="433.49999999999994" y="471.0000000000002" width="30" height="20" as="geometry" />
        </mxCell>
        <mxCell id="96" value="Socket&#xa;Channel&#xa;" style="text;spacingTop=-5;align=center" parent="1" vertex="1">
          <mxGeometry x="364.9999999999998" y="471" width="30" height="20" as="geometry" />
        </mxCell>
        <mxCell id="9FcSuVPsfGgKmMSjfDe_-96" value="" style="html=1;verticalLabelPosition=bottom;labelBackgroundColor=#ffffff;verticalAlign=top;shadow=0;dashed=0;strokeWidth=1;shape=mxgraph.ios7.misc.iphone;strokeColor=#d79b00;fillColor=#ffe6cc;" vertex="1" parent="1">
          <mxGeometry x="47.5" y="396" width="35" height="60" as="geometry" />
        </mxCell>
        <mxCell id="9FcSuVPsfGgKmMSjfDe_-109" style="edgeStyle=orthogonalEdgeStyle;rounded=1;orthogonalLoop=1;jettySize=auto;html=1;exitX=0;exitY=0.75;exitDx=0;exitDy=0;entryX=1.027;entryY=0.667;entryDx=0;entryDy=0;strokeColor=#990000;strokeWidth=2;entryPerimeter=0;" edge="1" parent="1" source="9FcSuVPsfGgKmMSjfDe_-107" target="8">
          <mxGeometry relative="1" as="geometry" />
        </mxCell>
        <mxCell id="9FcSuVPsfGgKmMSjfDe_-107" value="3rd-Party Geo Package" style="whiteSpace=wrap;align=center;verticalAlign=middle;fontStyle=1;strokeWidth=3;fillColor=#e1d5e7;strokeColor=#9673a6;" vertex="1" parent="1">
          <mxGeometry x="730" y="266" width="90" height="60" as="geometry" />
        </mxCell>
        <mxCell id="9FcSuVPsfGgKmMSjfDe_-110" value="lat/lng" style="text;spacingTop=-5;align=center" vertex="1" parent="1">
          <mxGeometry x="691" y="261.0000000000001" width="30" height="20" as="geometry" />
        </mxCell>
        <mxCell id="9FcSuVPsfGgKmMSjfDe_-111" value="" style="outlineConnect=0;dashed=0;verticalLabelPosition=bottom;verticalAlign=top;align=center;html=1;shape=mxgraph.aws3.elasticsearch_service;fillColor=#F58534;gradientColor=none;" vertex="1" parent="1">
          <mxGeometry x="410.82" y="87.38" width="48.37" height="45.25" as="geometry" />
        </mxCell>
        <mxCell id="9FcSuVPsfGgKmMSjfDe_-116" value="Elastic Search" style="text;spacingTop=-5;align=center" vertex="1" parent="1">
          <mxGeometry x="420.0000000000001" y="60.00000000000003" width="30" height="20" as="geometry" />
        </mxCell>
        <mxCell id="9FcSuVPsfGgKmMSjfDe_-124" value="" style="edgeStyle=orthogonalEdgeStyle;rounded=1;orthogonalLoop=1;jettySize=auto;html=1;strokeColor=#990000;strokeWidth=2;" edge="1" parent="1">
          <mxGeometry relative="1" as="geometry">
            <mxPoint x="453.5" y="244" as="sourcePoint" />
            <mxPoint x="453.5" y="138" as="targetPoint" />
          </mxGeometry>
        </mxCell>
        <mxCell id="9FcSuVPsfGgKmMSjfDe_-126" value="Search &#xa;Results" style="text;spacingTop=-5;align=center" vertex="1" parent="1">
          <mxGeometry x="393.0000000000001" y="166.00000000000003" width="30" height="20" as="geometry" />
        </mxCell>
        <mxCell id="9FcSuVPsfGgKmMSjfDe_-128" value="" style="image;html=1;image=img/lib/clip_art/computers/Database_128x128.png" vertex="1" parent="1">
          <mxGeometry x="590" y="80.01" width="70" height="60" as="geometry" />
        </mxCell>
        <mxCell id="9FcSuVPsfGgKmMSjfDe_-131" value="User Database" style="text;spacingTop=-5;align=center" vertex="1" parent="1">
          <mxGeometry x="605" y="60.000000000000114" width="30" height="20" as="geometry" />
        </mxCell>
        <mxCell id="9FcSuVPsfGgKmMSjfDe_-133" value="User Data" style="text;spacingTop=-5;align=center" vertex="1" parent="1">
          <mxGeometry x="450" y="351" width="30" height="20" as="geometry" />
        </mxCell>
        <mxCell id="9FcSuVPsfGgKmMSjfDe_-141" style="edgeStyle=orthogonalEdgeStyle;rounded=1;orthogonalLoop=1;jettySize=auto;html=1;exitX=0.75;exitY=1;exitDx=0;exitDy=0;entryX=0.75;entryY=0;entryDx=0;entryDy=0;strokeColor=#990000;strokeWidth=2;" edge="1" parent="1" source="10" target="9FcSuVPsfGgKmMSjfDe_-135">
          <mxGeometry relative="1" as="geometry" />
        </mxCell>
        <mxCell id="9FcSuVPsfGgKmMSjfDe_-135" value="" style="whiteSpace=wrap;align=center;verticalAlign=middle;fontStyle=1;strokeWidth=3;fillColor=#e1d5e7;strokeColor=#9673a6;" vertex="1" parent="1">
          <mxGeometry x="202.5" y="660.01" width="100" height="59.99" as="geometry" />
        </mxCell>
        <mxCell id="9FcSuVPsfGgKmMSjfDe_-150" value="" style="edgeStyle=orthogonalEdgeStyle;rounded=1;orthogonalLoop=1;jettySize=auto;html=1;strokeColor=#990000;strokeWidth=2;exitX=0.5;exitY=1;exitDx=0;exitDy=0;" edge="1" parent="1" source="9FcSuVPsfGgKmMSjfDe_-135" target="9FcSuVPsfGgKmMSjfDe_-144">
          <mxGeometry relative="1" as="geometry" />
        </mxCell>
        <mxCell id="9FcSuVPsfGgKmMSjfDe_-136" value="" style="outlineConnect=0;dashed=0;verticalLabelPosition=bottom;verticalAlign=top;align=center;html=1;shape=mxgraph.aws3.elasticsearch_service;fillColor=#F58534;gradientColor=none;" vertex="1" parent="1">
          <mxGeometry x="227.32" y="667.38" width="48.37" height="45.25" as="geometry" />
        </mxCell>
        <mxCell id="9FcSuVPsfGgKmMSjfDe_-137" value="Elastic Search" style="text;spacingTop=-5;align=center" vertex="1" parent="1">
          <mxGeometry x="180.0000000000001" y="720" width="30" height="20" as="geometry" />
        </mxCell>
        <mxCell id="9FcSuVPsfGgKmMSjfDe_-143" value="Forum Data&#xa;Keyword" style="text;spacingTop=-5;align=center" vertex="1" parent="1">
          <mxGeometry x="303" y="630" width="30" height="20" as="geometry" />
        </mxCell>
        <mxCell id="9FcSuVPsfGgKmMSjfDe_-162" style="edgeStyle=orthogonalEdgeStyle;rounded=1;orthogonalLoop=1;jettySize=auto;html=1;exitX=1;exitY=0.5;exitDx=0;exitDy=0;entryX=0.5;entryY=1;entryDx=0;entryDy=0;entryPerimeter=0;strokeColor=#990000;strokeWidth=2;" edge="1" parent="1" source="9FcSuVPsfGgKmMSjfDe_-144" target="9FcSuVPsfGgKmMSjfDe_-153">
          <mxGeometry relative="1" as="geometry" />
        </mxCell>
        <mxCell id="9FcSuVPsfGgKmMSjfDe_-144" value="" style="image;html=1;image=img/lib/clip_art/computers/Database_128x128.png" vertex="1" parent="1">
          <mxGeometry x="221" y="770" width="70" height="60" as="geometry" />
        </mxCell>
        <mxCell id="9FcSuVPsfGgKmMSjfDe_-151" value="Forum Database" style="text;spacingTop=-5;align=center" vertex="1" parent="1">
          <mxGeometry x="238.5" y="830.0000000000001" width="30" height="20" as="geometry" />
        </mxCell>
        <mxCell id="9FcSuVPsfGgKmMSjfDe_-161" style="edgeStyle=orthogonalEdgeStyle;rounded=1;orthogonalLoop=1;jettySize=auto;html=1;entryX=0.5;entryY=1;entryDx=0;entryDy=0;strokeColor=#990000;strokeWidth=2;" edge="1" parent="1" source="9FcSuVPsfGgKmMSjfDe_-153" target="11">
          <mxGeometry relative="1" as="geometry" />
        </mxCell>
        <mxCell id="9FcSuVPsfGgKmMSjfDe_-167" style="edgeStyle=orthogonalEdgeStyle;rounded=1;orthogonalLoop=1;jettySize=auto;html=1;exitX=1;exitY=0.5;exitDx=0;exitDy=0;exitPerimeter=0;strokeColor=#990000;strokeWidth=2;" edge="1" parent="1" source="9FcSuVPsfGgKmMSjfDe_-153">
          <mxGeometry relative="1" as="geometry">
            <mxPoint x="540" y="691" as="targetPoint" />
          </mxGeometry>
        </mxCell>
        <mxCell id="9FcSuVPsfGgKmMSjfDe_-153" value="" style="outlineConnect=0;dashed=0;verticalLabelPosition=bottom;verticalAlign=top;align=center;html=1;shape=mxgraph.aws3.kinesis_streams;fillColor=#F58534;gradientColor=none;" vertex="1" parent="1">
          <mxGeometry x="333" y="659" width="60" height="63" as="geometry" />
        </mxCell>
        <mxCell id="9FcSuVPsfGgKmMSjfDe_-156" value="Kinesis Streams" style="text;spacingTop=-5;align=center" vertex="1" parent="1">
          <mxGeometry x="403.5000000000001" y="722" width="30" height="20" as="geometry" />
        </mxCell>
        <mxCell id="9FcSuVPsfGgKmMSjfDe_-164" value="" style="outlineConnect=0;dashed=0;verticalLabelPosition=bottom;verticalAlign=top;align=center;html=1;shape=mxgraph.aws3.kinesis_analytics;fillColor=#F58534;gradientColor=none;" vertex="1" parent="1">
          <mxGeometry x="544" y="659" width="73.5" height="75" as="geometry" />
        </mxCell>
        <mxCell id="9FcSuVPsfGgKmMSjfDe_-168" value="Streams for Analysis" style="text;spacingTop=-5;align=center" vertex="1" parent="1">
          <mxGeometry x="445.5000000000001" y="667.38" width="30" height="20" as="geometry" />
        </mxCell>
        <mxCell id="9FcSuVPsfGgKmMSjfDe_-169" value="Kinesis Analytics" style="text;spacingTop=-5;align=center" vertex="1" parent="1">
          <mxGeometry x="630.0000000000001" y="722" width="30" height="20" as="geometry" />
        </mxCell>
        <mxCell id="9FcSuVPsfGgKmMSjfDe_-178" value="Data" style="text;spacingTop=-5;align=center" vertex="1" parent="1">
          <mxGeometry x="121.00000000000011" y="358" width="30" height="20" as="geometry" />
        </mxCell>
      </root>
    </mxGraphModel>
  </diagram>
</mxfile>
